<svg width="46" height="46" viewBox="0 0 64 64" fill="none" stroke="#fff" stroke-width="3" stroke-linecap="round" stroke-linejoin="round" xmlns="http://www.w3.org/2000/svg">
  <path d="M31 11 l-2 -6 M36 11 l2 -6" />
  <path d="M33 11 C 20 11 12 22 12 35 C 12 48 21 55 33 55 C 45 55 53 47 52 36 C 52 32 51 29 50 27 L58 28 L50 31 C 49 22 44 11 33 11 Z" />
  <circle cx="45" cy="24" r="1.9" fill="#fff" stroke="none" />
  <path d="M24 37 C 31 34 38 38 37 45 C 31 47 25 44 24 39 Z" />
  <path d="M30 55 l-1 6 M30 61 l-3 2 M30 61 l3 2 M38 55 l0 6 M38 61 l-3 2 M38 61 l3 2" />
</svg>
